<svg width="28" height="28" viewBox="0 0 28 28" fill="none" xmlns="http://www.w3.org/2000/svg">
<path d="M17.1848 2.85248C16.441 2.6381 15.6667 3.07123 15.4523 3.81498L9.85229 23.415C9.63791 24.1587 10.071 24.9331 10.8148 25.1475C11.5585 25.3619 12.3329 24.9287 12.5473 24.185L18.1473 4.58498C18.3617 3.84123 17.9285 3.06685 17.1848 2.85248ZM20.011 8.80685C19.4642 9.35373 19.4642 10.2419 20.011 10.7887L23.2223 14L20.011 17.2112C19.4642 17.7581 19.4642 18.6462 20.011 19.1931C20.5579 19.74 21.446 19.74 21.9929 19.1931L26.1929 14.9931C26.7398 14.4462 26.7398 13.5581 26.1929 13.0112L21.9929 8.81123C21.446 8.26435 20.5579 8.26435 20.011 8.81123V8.80685ZM7.99291 8.80685C7.44603 8.25998 6.55791 8.25998 6.01103 8.80685L1.81104 13.0069C1.26416 13.5537 1.26416 14.4419 1.81104 14.9887L6.01103 19.1887C6.55791 19.7356 7.44603 19.7356 7.99291 19.1887C8.53978 18.6419 8.53978 17.7537 7.99291 17.2069L4.78166 14L7.98854 10.7887C8.53541 10.2419 8.53541 9.35373 7.98854 8.80685H7.99291Z" fill="#CAD3E5"/>
</svg>
