<svg width="59" height="66" viewBox="0 0 59 66" fill="none" xmlns="http://www.w3.org/2000/svg">
<g clip-path="url(#clip0_87_846)">
<path d="M58.7378 19.5376C58.7373 18.4388 58.501 17.4678 58.023 16.6347C57.5535 15.815 56.8503 15.1282 55.9071 14.5852C48.1216 10.1218 40.3286 5.6721 32.5456 1.2042C30.4473 -0.000189632 28.4129 0.0439458 26.3302 1.26563C23.2314 3.08246 7.71642 11.9202 3.09318 14.5827C1.18919 15.6788 0.26271 17.3559 0.262252 19.5356C0.259277 28.5117 0.262252 37.4877 0.259277 46.4638C0.259277 47.5385 0.486035 48.4908 0.942982 49.3114C1.41274 50.1557 2.12574 50.8614 3.09066 51.4167C7.71413 54.0792 23.2311 62.9162 26.3293 64.7338C28.4129 65.9561 30.4473 65.9998 32.5463 64.7952C40.3295 60.3271 48.123 55.8774 55.9096 51.414C56.8745 50.8589 57.5875 50.1527 58.0573 49.3092C58.5136 48.4883 58.7408 47.5362 58.7408 46.4613C58.7408 46.4613 58.7408 28.5139 58.7378 19.5376Z" fill="#ADBEDD"/>
<path d="M29.5894 32.9126L0.942871 49.3118C1.41263 50.1561 2.12563 50.8618 3.09055 51.4171C7.71402 54.0796 23.231 62.9166 26.3292 64.7341C28.4128 65.9565 30.4472 66.0002 32.5462 64.7956C40.3294 60.3274 48.1229 55.8777 55.9095 51.4144C56.8744 50.8593 57.5874 50.1531 58.0572 49.3095L29.5894 32.9126Z" fill="#ADBEDD"/>
<path d="M58.7377 19.5377C58.7372 18.4389 58.5008 17.4679 58.0228 16.6348L29.5894 32.9125L58.0572 49.3092C58.5134 48.4884 58.7402 47.5363 58.7406 46.4613C58.7406 46.4613 58.7406 28.514 58.7377 19.5377Z" fill="#ADBEDD"/>
<path d="M46.4554 26.7822V29.8476H49.5385V26.7822H51.0801V29.8476H54.1631V31.3803H51.0801V34.4454H54.1631V35.9781H51.0801V39.0434H49.5385V35.9781H46.4554V39.0434H44.9139V35.9781H41.8311V34.4454H44.9139V31.3803H41.8311V29.8476H44.9139V26.7822H46.4554ZM49.5385 31.38H46.4554V34.4454H49.5385V31.38Z" fill="black"/>
<path d="M29.6524 11.3874C37.6939 11.3874 44.7147 15.7295 48.4753 22.1837L48.4387 22.1216L38.9771 27.538C37.1132 24.4001 33.696 22.2823 29.7757 22.2386L29.6522 22.2379C23.6743 22.2379 18.828 27.0564 18.828 32.9998C18.826 34.8732 19.3183 36.7142 20.2556 38.3393C22.1213 41.5778 25.6289 43.762 29.6524 43.762C33.7009 43.762 37.2283 41.55 39.0845 38.277L39.0394 38.3555L48.4865 43.7968C44.7671 50.1965 37.8424 54.5251 29.8945 54.6114L29.6524 54.6127C21.5854 54.6127 14.5448 50.2438 10.7935 43.7554C8.9623 40.5879 7.91455 36.9158 7.91455 32.9998C7.91455 21.0638 17.6466 11.3872 29.6522 11.3872L29.6524 11.3874Z" fill="black"/>
</g>
<defs>
<clipPath id="clip0_87_846">
<rect width="59" height="66" fill="white"/>
</clipPath>
</defs>
</svg>
