<svg width="24" height="24" viewBox="0 0 24 24" fill="none" xmlns="http://www.w3.org/2000/svg">
<path d="M14.3999 2.3999C13.7362 2.3999 13.1999 2.93615 13.1999 3.5999C13.1999 4.26365 13.7362 4.7999 14.3999 4.7999H17.5012L9.94865 12.3524C9.4799 12.8212 9.4799 13.5824 9.94865 14.0512C10.4174 14.5199 11.1787 14.5199 11.6474 14.0512L19.1999 6.49865V9.5999C19.1999 10.2637 19.7362 10.7999 20.3999 10.7999C21.0637 10.7999 21.5999 10.2637 21.5999 9.5999V3.5999C21.5999 2.93615 21.0637 2.3999 20.3999 2.3999H14.3999ZM5.3999 5.9999C3.7424 5.9999 2.3999 7.3424 2.3999 8.9999V18.5999C2.3999 20.2574 3.7424 21.5999 5.3999 21.5999H14.9999C16.6574 21.5999 17.9999 20.2574 17.9999 18.5999V15.5999C17.9999 14.9362 17.4637 14.3999 16.7999 14.3999C16.1362 14.3999 15.5999 14.9362 15.5999 15.5999V18.5999C15.5999 18.9299 15.3299 19.1999 14.9999 19.1999H5.3999C5.0699 19.1999 4.7999 18.9299 4.7999 18.5999V8.9999C4.7999 8.6699 5.0699 8.3999 5.3999 8.3999H8.3999C9.06365 8.3999 9.5999 7.86365 9.5999 7.1999C9.5999 6.53615 9.06365 5.9999 8.3999 5.9999H5.3999Z" fill="#CAD3E5"/>
</svg>
