<svg width="59" height="85" viewBox="0 0 59 85" fill="none" xmlns="http://www.w3.org/2000/svg">
<path d="M0 15.9043C0 7.12207 7.10983 0 15.877 0H43.123C51.8902 0 59 7.12207 59 15.9043C59 21.4658 56.1494 26.3633 51.8405 29.2021C56.1494 32.041 59 36.9385 59 42.5C59 51.2822 51.8902 58.4043 43.123 58.4043H42.775C38.6649 58.4043 34.9194 56.8438 32.102 54.2705V68.9297C32.102 77.8281 24.8098 85 15.9598 85C7.20927 85 0 77.8945 0 69.0957C0 63.5342 2.85056 58.6367 7.15955 55.7979C2.85056 52.959 0 48.0615 0 42.5C0 36.9385 2.85056 32.041 7.15955 29.2021C2.85056 26.3633 0 21.4658 0 15.9043ZM26.898 31.8086H15.877C9.97697 31.8086 5.20393 36.5898 5.20393 42.5C5.20393 48.377 9.94382 53.1582 15.8107 53.1914H26.898V31.8086ZM32.102 42.5C32.102 48.4102 36.875 53.1914 42.775 53.1914H43.123C49.023 53.1914 53.7961 48.4102 53.7961 42.5C53.7961 36.5898 49.023 31.8086 43.123 31.8086H42.775C36.875 31.8086 32.102 36.5898 32.102 42.5ZM15.877 58.4043H15.8107C9.94382 58.4375 5.20393 63.2188 5.20393 69.0957C5.20393 74.9727 10.0433 79.7871 15.9598 79.7871C21.9758 79.7871 26.898 74.9062 26.898 68.9131V58.3877H15.877V58.4043ZM15.877 5.21289C9.97697 5.21289 5.20393 9.99414 5.20393 15.9043C5.20393 21.8145 9.97697 26.5957 15.877 26.5957H26.898V5.21289H15.877ZM32.102 26.5957H43.123C49.023 26.5957 53.7961 21.8145 53.7961 15.9043C53.7961 9.99414 49.023 5.21289 43.123 5.21289H32.102V26.5957Z" fill="#ADBEDD"/>
</svg>
