<svg width="34" height="34" viewBox="0 0 34 34" fill="none" xmlns="http://www.w3.org/2000/svg">
<path d="M12.6386 24.5118C12.6386 24.6181 12.5164 24.7031 12.3624 24.7031C12.1871 24.719 12.0649 24.634 12.0649 24.5118C12.0649 24.4056 12.1871 24.3206 12.3411 24.3206C12.5005 24.3046 12.6386 24.3896 12.6386 24.5118ZM10.9864 24.2728C10.9493 24.379 11.0555 24.5012 11.2149 24.5331C11.353 24.5862 11.5124 24.5331 11.5443 24.4268C11.5761 24.3206 11.4752 24.1984 11.3158 24.1506C11.1777 24.1134 11.0236 24.1665 10.9864 24.2728ZM13.3346 24.1825C13.1805 24.2196 13.0743 24.3206 13.0902 24.4428C13.1061 24.549 13.2443 24.6181 13.4036 24.5809C13.5577 24.5437 13.6639 24.4428 13.648 24.3365C13.6321 24.2356 13.4886 24.1665 13.3346 24.1825ZM16.8302 3.82495C9.46176 3.82495 3.8252 9.41901 3.8252 16.7875C3.8252 22.679 7.53332 27.7206 12.8299 29.495C13.5099 29.6171 13.7489 29.1974 13.7489 28.8521C13.7489 28.5228 13.733 26.7059 13.733 25.5903C13.733 25.5903 10.0143 26.3871 9.23332 24.0071C9.23332 24.0071 8.6277 22.4612 7.75645 22.0628C7.75645 22.0628 6.53988 21.2287 7.84145 21.2446C7.84145 21.2446 9.16426 21.3509 9.89207 22.6153C11.0555 24.6659 13.0052 24.0762 13.7649 23.7256C13.8871 22.8756 14.2324 22.2859 14.6149 21.9353C11.6452 21.6059 8.64895 21.1756 8.64895 16.0649C8.64895 14.604 9.0527 13.8709 9.9027 12.9359C9.76457 12.5906 9.31301 11.1668 10.0408 9.3287C11.1511 8.98339 13.7064 10.7631 13.7064 10.7631C14.7689 10.4656 15.9111 10.3115 17.0427 10.3115C18.1743 10.3115 19.3164 10.4656 20.3789 10.7631C20.3789 10.7631 22.9343 8.97808 24.0446 9.3287C24.7724 11.1721 24.3208 12.5906 24.1827 12.9359C25.0327 13.8762 25.5533 14.6093 25.5533 16.0649C25.5533 21.1915 22.4243 21.6006 19.4546 21.9353C19.9433 22.3549 20.3577 23.1518 20.3577 24.4003C20.3577 26.1906 20.3418 28.4059 20.3418 28.8415C20.3418 29.1868 20.5861 29.6065 21.2608 29.4843C26.5733 27.7206 30.1752 22.679 30.1752 16.7875C30.1752 9.41901 24.1986 3.82495 16.8302 3.82495ZM8.98895 22.1478C8.91988 22.2009 8.93582 22.3231 9.02613 22.424C9.11113 22.509 9.23332 22.5462 9.30238 22.4771C9.37145 22.424 9.35551 22.3018 9.2652 22.2009C9.1802 22.1159 9.05801 22.0787 8.98895 22.1478ZM8.41519 21.7174C8.37801 21.7865 8.43113 21.8715 8.53738 21.9246C8.62238 21.9778 8.72863 21.9618 8.76582 21.8875C8.80301 21.8184 8.74988 21.7334 8.64363 21.6803C8.53738 21.6484 8.45238 21.6643 8.41519 21.7174ZM10.1364 23.6087C10.0514 23.6778 10.0833 23.8371 10.2055 23.9381C10.3277 24.0603 10.4818 24.0762 10.5508 23.9912C10.6199 23.9221 10.588 23.7628 10.4818 23.6618C10.3649 23.5396 10.2055 23.5237 10.1364 23.6087ZM9.53082 22.8278C9.44582 22.8809 9.44582 23.019 9.53082 23.1412C9.61582 23.2634 9.75926 23.3165 9.82832 23.2634C9.91332 23.1943 9.91332 23.0562 9.82832 22.934C9.75395 22.8118 9.61582 22.7587 9.53082 22.8278Z" fill="#ADBEDD"/>
</svg>
