<svg width="59" height="59" viewBox="0 0 59 59" fill="none" xmlns="http://www.w3.org/2000/svg">
<path d="M0 0V59H59V0H0ZM32.1076 46.0147C32.1076 51.7567 28.7362 54.3775 23.8239 54.3775C19.3857 54.3775 16.8176 52.0859 15.5007 49.3071L20.0179 46.581C20.8871 48.1219 21.6772 49.4257 23.5868 49.4257C25.4042 49.4257 26.5632 48.7145 26.5632 45.9357V27.09H32.1076V46.0147ZM45.2246 54.3775C40.0752 54.3775 36.7433 51.9279 35.1234 48.7145L39.6406 46.1069C40.8259 48.0429 42.3799 49.4784 45.106 49.4784C47.3975 49.4784 48.8725 48.3326 48.8725 46.7391C48.8725 44.8426 47.3712 44.171 44.8295 43.0516L43.4467 42.4589C39.4431 40.76 36.796 38.6134 36.796 34.0962C36.796 29.9346 39.9699 26.7739 44.9085 26.7739C48.438 26.7739 50.9665 27.9987 52.7839 31.2121L48.4643 33.9777C47.5161 32.2788 46.4888 31.6071 44.8953 31.6071C43.2754 31.6071 42.2482 32.6344 42.2482 33.9777C42.2482 35.6371 43.2754 36.3087 45.6592 37.3491L47.042 37.9417C51.7567 39.9567 54.4038 42.0243 54.4038 46.66C54.4038 51.6382 50.4792 54.3775 45.2246 54.3775Z" fill="#ADBEDD"/>
</svg>
