<svg width="11" height="423" viewBox="0 0 11 423" fill="none" xmlns="http://www.w3.org/2000/svg">
<path d="M5.3335 0.000162919C2.38798 0.000162919 0.000162919 2.38798 0.000162919 5.3335C0.000162919 8.27901 2.38798 10.6668 5.3335 10.6668C8.27901 10.6668 10.6668 8.27901 10.6668 5.3335C10.6668 2.38798 8.27901 0.000162919 5.3335 0.000162919ZM5.3335 412C2.38798 412 0.000162919 414.388 0.000162919 417.334C0.000162919 420.279 2.38798 422.667 5.3335 422.667C8.27901 422.667 10.6668 420.279 10.6668 417.334C10.6668 414.388 8.27901 412 5.3335 412ZM5.3335 5.3335H4.3335L4.3335 417.334H5.3335H6.3335L6.3335 5.3335H5.3335Z" fill="#ADBEDD"/>
</svg>
