<svg width="34" height="34" viewBox="0 0 34 34" fill="none" xmlns="http://www.w3.org/2000/svg">
<path d="M27.2001 5.09998H6.79479C5.85979 5.09998 5.1001 5.87029 5.1001 6.81591V27.184C5.1001 28.1297 5.85979 28.9 6.79479 28.9H27.2001C28.1351 28.9 28.9001 28.1297 28.9001 27.184V6.81591C28.9001 5.87029 28.1351 5.09998 27.2001 5.09998ZM12.2932 25.5H8.76572V14.1419H12.2985V25.5H12.2932ZM10.5295 8.49998C11.661 8.49998 12.5748 9.41373 12.5748 10.5453C12.5748 11.6769 11.661 12.5906 10.5295 12.5906C9.39791 12.5906 8.48416 11.6769 8.48416 10.5453C8.48416 9.41373 9.39791 8.49998 10.5295 8.49998ZM25.516 25.5H21.9885V19.975C21.9885 18.6575 21.962 16.9628 20.1557 16.9628C18.3176 16.9628 18.036 18.3972 18.036 19.8794V25.5H14.5085V14.1419H17.8926V15.6931H17.9404C18.4132 14.8006 19.566 13.8603 21.282 13.8603C24.852 13.8603 25.516 16.2137 25.516 19.2737V25.5Z" fill="#ADBEDD"/>
</svg>
