<svg width="73" height="38" viewBox="0 0 73 38" fill="none" xmlns="http://www.w3.org/2000/svg">
<path d="M36.5 1.89661C56.0503 1.89661 71.0838 10.0475 71.0838 19C71.0838 27.9525 56.0389 36.1034 36.5 36.1034C16.9497 36.1034 1.91625 27.9525 1.91625 19C1.91625 10.0475 16.9611 1.89661 36.5 1.89661ZM36.5 0C16.3452 0 0 8.50089 0 19C0 29.4991 16.3452 38 36.5 38C56.6548 38 73 29.4991 73 19C73 8.50089 56.6548 0 36.5 0ZM24.8884 17.4759C23.9873 22.0481 20.805 21.574 16.8927 21.574L18.4553 13.6037C22.7897 13.6037 25.7325 13.1408 24.8884 17.4759ZM11.1097 29.6459H15.2958L16.2881 24.5882C20.9761 24.5882 23.8847 24.9269 26.5766 22.432C29.5536 19.7225 30.3292 14.902 28.2077 12.486C27.1012 11.2216 25.3219 10.6007 22.9038 10.6007H14.8395L11.1097 29.6459ZM32.2911 5.53179H36.4544L35.462 10.5894C39.055 10.5894 42.3856 10.3298 43.9939 11.7974C45.682 13.3327 44.8722 15.2971 43.0472 24.5657H38.8269C40.5834 15.6019 40.9142 14.8568 40.2755 14.1794C39.6595 13.5247 38.2566 13.6601 34.8689 13.6601L32.7245 24.5657H28.5613L32.2911 5.53179ZM57.6016 17.4759C56.6891 22.1159 53.4155 21.574 49.6058 21.574L51.1684 13.6037C55.5256 13.6037 58.4456 13.1408 57.6016 17.4759ZM43.8228 29.6459H48.0203L49.0127 24.5882C53.9402 24.5882 56.6663 24.8705 59.3011 22.432C62.2781 19.7225 63.0538 14.902 60.9322 12.486C59.8258 11.2216 58.0464 10.6007 55.6283 10.6007H47.5641L43.8228 29.6459Z" fill="#ADBEDD"/>
</svg>
