<svg width="59" height="59" viewBox="0 0 59 59" fill="none" xmlns="http://www.w3.org/2000/svg">
<path d="M57.9183 22.1903C56.9043 18.121 54.9816 15.0526 50.886 15.0526H45.6051V21.2948C45.6051 26.141 41.4963 30.2235 36.8081 30.2235H22.7433C18.8979 30.2235 15.711 33.5158 15.711 37.3743V50.7806C15.711 54.5996 19.0296 56.8384 22.7433 57.9315C27.1945 59.2352 31.4745 59.4722 36.8081 57.9315C40.3506 56.9043 43.8404 54.8367 43.8404 50.7806V45.4207H29.7889V43.6297H50.886C54.9816 43.6297 56.4961 40.772 57.9183 36.492C59.3933 32.0803 59.3274 27.8398 57.9183 22.1903ZM37.6904 54.3494C36.6896 54.4153 35.7282 53.928 35.2014 53.072C34.6878 52.2029 34.6878 51.1361 35.2014 50.267C35.7282 49.411 36.6896 48.9237 37.6904 48.9896C38.6913 48.9237 39.6526 49.411 40.1794 50.267C40.693 51.1361 40.693 52.2029 40.1794 53.072C39.6526 53.928 38.6913 54.4153 37.6904 54.3494ZM22.0981 28.4588H36.1628C40.074 28.4588 43.1951 25.2323 43.1951 21.3079V7.88852C43.1951 4.06945 39.9819 1.21174 36.1628 0.566446C31.4482 -0.210537 26.3254 -0.171029 22.0981 0.579615C16.1456 1.63315 15.0657 3.83241 15.0657 7.90169V13.2615H29.1436V15.0526H9.78483C5.6892 15.0526 2.10717 17.5152 0.98779 22.1903C-0.302793 27.5501 -0.35547 30.8951 0.98779 36.492C1.98865 40.6535 4.37228 43.6297 8.46791 43.6297H13.301V37.2031C13.301 32.5544 17.3176 28.4588 22.0981 28.4588ZM21.2289 4.3065C22.717 4.3065 23.9154 5.50489 23.9154 6.99301C23.9154 8.48113 22.717 9.67953 21.2289 9.67953C19.7408 9.67953 18.5424 8.48113 18.5424 6.99301C18.5424 5.50489 19.7408 4.3065 21.2289 4.3065Z" fill="#ADBEDD"/>
</svg>
