<svg width="28" height="28" viewBox="0 0 28 28" fill="none" xmlns="http://www.w3.org/2000/svg">
<path d="M8.40022 16.7999H3.87209C2.78272 16.7999 2.11334 15.6143 2.67334 14.678L4.98772 10.8193C5.36834 10.1849 6.05084 9.7999 6.79022 9.7999H10.9465C14.2758 4.16052 19.2415 3.87615 22.5621 4.36177C23.1221 4.4449 23.5596 4.8824 23.6383 5.43802C24.124 8.75865 23.8396 13.7243 18.2002 17.0536V21.2099C18.2002 21.9493 17.8152 22.6318 17.1808 23.0124L13.3221 25.3268C12.3902 25.8868 11.2002 25.213 11.2002 24.128V19.5999C11.2002 18.0555 9.94459 16.7999 8.40022 16.7999ZM20.3002 9.7999C20.3002 8.64052 19.3596 7.6999 18.2002 7.6999C17.0408 7.6999 16.1002 8.64052 16.1002 9.7999C16.1002 10.9593 17.0408 11.8999 18.2002 11.8999C19.3596 11.8999 20.3002 10.9593 20.3002 9.7999Z" fill="#6F8BBE"/>
</svg>
