<svg width="59" height="67" viewBox="0 0 59 67" fill="none" xmlns="http://www.w3.org/2000/svg">
<path d="M59 26.9309C57.0509 28.2133 54.8121 29.2471 52.481 30.0715C46.2913 32.2699 38.1656 33.5 29.5 33.5C20.8344 33.5 12.6955 32.2568 6.51897 30.0715C4.20112 29.2471 1.94911 28.2133 0 26.9309V37.6875C0 43.4715 13.2092 48.1562 29.5 48.1562C45.7908 48.1562 59 43.4715 59 37.6875V26.9309ZM59 16.75V10.4688C59 4.68477 45.7908 0 29.5 0C13.2092 0 0 4.68477 0 10.4688V16.75C0 22.534 13.2092 27.2188 29.5 27.2188C45.7908 27.2188 59 22.534 59 16.75ZM52.481 51.009C46.3045 53.1943 38.1788 54.4375 29.5 54.4375C20.8212 54.4375 12.6955 53.1943 6.51897 51.009C4.20112 50.1846 1.94911 49.1508 0 47.8684V56.5312C0 62.3152 13.2092 67 29.5 67C45.7908 67 59 62.3152 59 56.5312V47.8684C57.0509 49.1508 54.8121 50.1846 52.481 51.009Z" fill="#ADBEDD"/>
</svg>
